<svg id="Layer_1" data-name="Layer 1" xmlns="http://www.w3.org/2000/svg" viewBox="0 0 200.03 269.86"><defs><style>.cls-1{fill:#ea5b5c;}</style></defs><title>locationlogo</title><path class="cls-1" d="M950,804.22c-1.58-15.47-5.67-28.25-11.35-38.79a91.58,91.58,0,0,0-23.69-27.68c-28.8-22-64.52-22.29-64.52-22.29s-35.72.29-64.52,22.3a91.61,91.61,0,0,0-23.68,27.66c-5.68,10.55-9.77,23.33-11.35,38.8-.29,3.4-.46,6.92-.46,10.58,0,93.88,91.34,167.78,91.34,167.78a16.13,16.13,0,0,0,8.17,2.71v0h1v0a16.2,16.2,0,0,0,8.18-2.71s91.34-73.9,91.34-167.78C950.41,811.14,950.24,807.62,950,804.22Zm-99.56,52.94a48.48,48.48,0,1,1,48.48-48.48A48.49,48.49,0,0,1,850.39,857.16Z" transform="translate(-750.38 -715.46)"/></svg>